<svg xmlns="http://www.w3.org/2000/svg" xmlns:xlink="http://www.w3.org/1999/xlink" version="1.1" x="0px" y="0px" viewBox="0 0 474.861 335.551" style="enable-background:new 0 0 474.861 335.551;" xml:space="preserve"><g><path d="M48.181,251.132c-0.438-0.746-1.005-1.42-1.685-1.979l-9.912-8.143c-1.968-1.616-3.471-3.614-4.452-5.84   C19.151,239.958,8.535,248.977,0,262.547C15.009,254.561,31.145,250.741,48.181,251.132z"/><path d="M38.21,259.396c-10.433,0.834-20.349,3.458-29.88,7.911c0.808,3.56,2.395,9.813,4.747,15.848   C19.766,274.026,28.156,266.086,38.21,259.396z"/><path d="M38.243,215.317c7.974-5.031,17.037-8.624,26.429-10.623c-10.593-2.52-24.748-3.689-37.568,2.498   c-15.356,7.41-19.787,24.173-20.998,35.181c7.281-6.998,15.572-12.08,24.809-15.248C31.424,222.242,34.051,217.963,38.243,215.317z   "/><path d="M38.818,228.296c-0.158,2.537,0.878,4.918,2.844,6.533l9.911,8.142c3.718,3.053,5.822,7.746,5.627,12.555l-0.327,8.043   c-0.279,6.86,3.829,13.148,10.224,15.647l11.082,4.332c3.718,1.453,6.628,4.439,7.982,8.192l2.424,6.705   c0.663,1.834,2.125,3.169,4.012,3.664c1.898,0.497,3.845,0.047,5.336-1.238c26.535-22.861,36.347-53.642,23.332-73.188   c-6.11-9.177-18.241-15.21-33.282-16.554c-15.646-1.39-32.223,2.595-45.47,10.953C40.325,223.463,38.979,225.728,38.818,228.296z"/><path d="M81.062,301.164l-2.424-6.706c-0.572-1.585-1.801-2.846-3.371-3.459l-9.651-3.773c-7.113,8.53-12.852,18.826-17.1,30.779   c11.123-6.832,22.168-11.766,33.418-14.945C81.603,302.452,81.301,301.825,81.062,301.164z"/><path d="M23.556,298.652c4.607,3.934,11.284,8.7,18.68,13.309c3.545-9.164,7.948-17.411,13.182-24.668   C45.157,288.881,34.698,292.602,23.556,298.652z"/><path d="M48.879,263.243l0.043-1.064c-14.457,8.261-25.682,18.935-33.526,31.881c13.613-7.968,26.311-12.758,38.844-14.686   C50.639,274.922,48.636,269.233,48.879,263.243z"/><path d="M127.923,223.25c3.469,5.21,5.601,11.055,6.498,17.27c5.989-1.693,16.451-3.888,25.764-1.979   c6.863,1.406,12.092,5.001,17.147,8.478c5.019,3.451,9.759,6.711,15.72,7.447c5.373,0.661,10.643-0.547,17.313-2.08   c7.42-1.704,15.83-3.636,27.065-3.636s19.646,1.932,27.065,3.636c6.671,1.533,11.941,2.744,17.313,2.08   c5.961-0.736,10.701-3.996,15.72-7.447c5.056-3.477,10.284-7.071,17.147-8.478c9.315-1.905,19.776,0.288,25.764,1.98   c0.897-6.216,3.028-12.061,6.498-17.271c7.461-11.206,21.76-18.528,39.229-20.088c0.5-0.044,1.003-0.067,1.504-0.101   C379.195,103.851,324.261,0,237.431,0C150.6,0,95.666,103.851,87.19,203.06c0.501,0.035,1.005,0.057,1.504,0.102   C106.163,204.722,120.462,212.044,127.923,223.25z M330.406,121.817c6.992,0,12.66,5.668,12.66,12.66s-5.668,12.66-12.66,12.66   s-12.66-5.668-12.66-12.66S323.414,121.817,330.406,121.817z M237.431,105.435c36.354,0,65.931,29.576,65.931,65.93   c0,36.354-29.576,65.931-65.931,65.931S171.5,207.719,171.5,171.364C171.5,135.011,201.076,105.435,237.431,105.435z    M144.455,121.817c6.992,0,12.66,5.668,12.66,12.66s-5.668,12.66-12.66,12.66s-12.66-5.668-12.66-12.66   S137.463,121.817,144.455,121.817z"/><path d="M443.946,227.125c9.237,3.168,17.528,8.25,24.809,15.248c-1.211-11.007-5.641-27.771-20.998-35.181   c-12.824-6.187-26.981-5.018-37.574-2.497c9.394,1.998,18.46,5.589,26.436,10.622C440.811,217.963,443.438,222.242,443.946,227.125   z"/><path d="M353.597,227.684c-13.015,19.546-3.203,50.326,23.332,73.188c1.491,1.285,3.437,1.736,5.336,1.238   c1.887-0.495,3.349-1.83,4.012-3.664l2.424-6.706c1.354-3.752,4.265-6.738,7.982-8.191l11.082-4.332   c6.395-2.499,10.503-8.787,10.224-15.646l-0.327-8.044c-0.195-4.809,1.909-9.502,5.628-12.556l9.91-8.141   c1.966-1.615,3.002-3.996,2.844-6.533c-0.16-2.568-1.507-4.833-3.694-6.213c-11.508-7.261-25.525-11.227-39.268-11.227   c-2.077,0-4.147,0.091-6.202,0.273C371.838,212.474,359.707,218.507,353.597,227.684z"/><path d="M442.729,235.171c-0.982,2.226-2.485,4.224-4.452,5.84l-9.911,8.142c-0.681,0.559-1.247,1.233-1.685,1.979   c17.031-0.392,33.172,3.429,48.18,11.416C466.326,248.976,455.71,239.958,442.729,235.171z"/><path d="M237.431,229.295c31.943,0,57.931-25.987,57.931-57.931c0-21.944-12.266-41.077-30.301-50.905   c-3.135,8.053-11.338,23.769-27.629,23.769s-24.494-15.715-27.629-23.769c-18.035,9.828-30.301,28.961-30.301,50.905   C179.5,203.308,205.487,229.295,237.431,229.295z M218.259,182.217l16.305-16.763c0.753-0.774,1.787-1.211,2.867-1.211   s2.114,0.437,2.867,1.211l16.305,16.763c1.54,1.584,1.506,4.116-0.078,5.656c-0.777,0.756-1.783,1.133-2.789,1.133   c-1.042,0-2.083-0.405-2.867-1.211l-13.438-13.814l-13.438,13.814c-1.541,1.583-4.074,1.618-5.656,0.078   C216.753,186.333,216.719,183.801,218.259,182.217z"/><path d="M237.431,136.228c11.627,0,17.944-12.862,20.325-19.103c-6.328-2.379-13.175-3.69-20.325-3.69s-13.997,1.31-20.325,3.69   C219.487,123.365,225.804,136.228,237.431,136.228z"/><path d="M461.785,283.157c2.356-6.042,3.942-12.292,4.748-15.85c-9.534-4.457-19.454-7.083-29.887-7.916   C446.703,266.083,455.095,274.025,461.785,283.157z"/><path d="M384.293,309.848c-1.162,0.305-2.344,0.454-3.518,0.454c-3.29,0-6.517-1.171-9.069-3.37   c-20.014-17.244-31.247-38.89-31.733-58.2c-4.7-1.454-15.1-4.115-23.691-2.352c-5.273,1.08-9.619,4.068-14.22,7.231   c-5.59,3.844-11.37,7.819-19.272,8.795c-6.767,0.836-12.94-0.58-20.085-2.223c-7.006-1.608-14.946-3.433-25.274-3.433   s-18.269,1.824-25.274,3.433c-5.684,1.307-10.752,2.47-15.996,2.471c-1.348,0-2.705-0.077-4.089-0.248   c-7.902-0.976-13.683-4.951-19.272-8.795c-4.601-3.163-8.946-6.151-14.22-7.231c-8.589-1.758-18.99,0.9-23.691,2.353   c-0.487,19.31-11.719,40.955-31.733,58.199c-2.553,2.199-5.779,3.37-9.069,3.37c-1.174,0-2.355-0.149-3.518-0.454   c-0.432-0.113-0.849-0.263-1.263-0.415c-10.29,2.364-20.394,6.28-30.552,11.871c17.448,8.923,32.934,13.797,44.089,13.797   c16.011,0,27.495-3.591,38.602-7.064c9.239-2.889,17.967-5.618,27.935-5.618c10.505,0,21.181,3.078,32.483,6.338   c11.584,3.341,23.563,6.795,35.568,6.795s23.984-3.454,35.568-6.795c11.303-3.26,21.979-6.338,32.483-6.338   c9.968,0,18.695,2.729,27.935,5.618c11.106,3.474,22.591,7.064,38.602,7.064c11.156,0,26.641-4.874,44.089-13.797   c-10.158-5.591-20.261-9.507-30.552-11.871C385.141,309.585,384.725,309.734,384.293,309.848z M138.147,302.518l-8.184,18.676   c-0.658,1.501-2.126,2.396-3.666,2.396c-0.536,0-1.081-0.108-1.604-0.337c-2.023-0.887-2.945-3.246-2.059-5.27l8.184-18.676   c0.888-2.023,3.247-2.942,5.27-2.059C138.112,298.135,139.034,300.494,138.147,302.518z M178.381,298.231   c-0.785,0.814-1.833,1.225-2.881,1.225c-0.999,0-1.999-0.372-2.775-1.119l-13.527-13.033c-1.591-1.533-1.638-4.065-0.105-5.656   c1.533-1.592,4.064-1.637,5.656-0.105l13.527,13.033C179.866,294.108,179.913,296.641,178.381,298.231z M218.274,319.03   c-0.715,0.526-1.546,0.78-2.37,0.78c-1.228,0-2.438-0.563-3.223-1.627l-8.813-11.961c-1.311-1.778-0.932-4.283,0.847-5.593   c1.78-1.31,4.282-0.932,5.593,0.847l8.813,11.961C220.432,315.216,220.053,317.721,218.274,319.03z M228.464,285.374   c-0.768,0.702-1.735,1.049-2.699,1.049c-1.083,0-2.163-0.438-2.952-1.3l-6.505-7.111c-1.491-1.631-1.379-4.16,0.251-5.651   s4.16-1.379,5.651,0.251l6.505,7.111C230.206,281.354,230.094,283.883,228.464,285.374z M260.443,302.712l-12.823,10.619   c-0.746,0.618-1.649,0.919-2.549,0.919c-1.15,0-2.292-0.493-3.083-1.449c-1.409-1.701-1.172-4.223,0.53-5.632l12.823-10.619   c1.7-1.408,4.223-1.173,5.632,0.53C262.383,298.781,262.146,301.303,260.443,302.712z M284.42,290.219   c-0.727,0.558-1.584,0.828-2.435,0.828c-1.2,0-2.387-0.537-3.175-1.563l-6.796-8.844c-1.346-1.752-1.017-4.263,0.734-5.609   c1.752-1.345,4.263-1.018,5.609,0.734l6.796,8.844C286.5,286.361,286.171,288.872,284.42,290.219z M313.808,309.311   c-0.759,0.667-1.7,0.994-2.637,0.994c-1.111,0-2.217-0.46-3.008-1.361l-8.604-9.799c-1.457-1.659-1.293-4.187,0.367-5.645   c1.659-1.459,4.187-1.294,5.645,0.367l8.604,9.799C315.632,305.325,315.468,307.853,313.808,309.311z M333.325,272.923   l-3.777,16.522c-0.424,1.854-2.072,3.109-3.896,3.109c-0.296,0-0.596-0.033-0.896-0.102c-2.153-0.492-3.5-2.638-3.008-4.791   l3.777-16.522c0.492-2.154,2.644-3.496,4.791-3.008C332.471,268.624,333.817,270.77,333.325,272.923z M367.658,323.575   c-0.757,1.222-2.064,1.894-3.403,1.894c-0.719,0-1.447-0.194-2.104-0.602l-12.171-7.545c-1.878-1.164-2.456-3.629-1.292-5.507   c1.163-1.878,3.628-2.458,5.507-1.292l12.171,7.545C368.244,319.232,368.822,321.697,367.658,323.575z"/><path d="M432.625,311.961c7.396-4.609,14.073-9.375,18.68-13.309c-11.142-6.05-21.602-9.771-31.862-11.359   C424.678,294.549,429.081,302.797,432.625,311.961z"/><path d="M399.595,290.999c-1.57,0.613-2.799,1.874-3.371,3.458l-2.424,6.707c-0.239,0.661-0.541,1.288-0.872,1.896   c11.249,3.179,22.295,8.113,33.418,14.945c-4.248-11.953-9.987-22.249-17.1-30.779L399.595,290.999z"/><path d="M425.939,262.179l0.043,1.065c0.243,5.989-1.76,11.678-5.361,16.13c12.532,1.927,25.23,6.718,38.844,14.686   C451.622,281.114,440.397,270.44,425.939,262.179z"/></g></svg>